# xmcd
#
# Track frame offsets: 
#        150
#        24475
#        49882
#        77769
#        99439
#        128066
#        149347
#        172200
#        194239
#        218382
#
# Disc length: 3241 seconds
#
# Revision: 0
# Processed by: cddbd v1.5.2PL0 Copyright (c) Steve Scherf et al.
# Submitted via: ExactAudioCopy v1.0b1
#
DISCID=8e0ca70a
DTITLE=Amigos Band - Yach.. Sudahlah
DYEAR=2000
DGENRE=Country
TTITLE0=Yach.. Sudahlah
TTITLE1=Hitamlah Hitam
TTITLE2=Jangan Ditanya
TTITLE3=Bonita
TTITLE4=Seroja
TTITLE5=Engkau Laksana Bulan
TTITLE6=Yang Sedang-sedang Saja
TTITLE7=Sungguh Hanya Dirimu
TTITLE8=Aku
TTITLE9=Gara-gara Mabuk Cinta
EXTD=
EXTT0=
EXTT1=
EXTT2=
EXTT3=
EXTT4=
EXTT5=
EXTT6=
EXTT7=
EXTT8=
EXTT9=
PLAYORDER=
